<svg xmlns="http://www.w3.org/2000/svg" width="28.927" height="30" viewBox="0 0 28.927 30"><defs><style>.a{fill:#fff;}</style></defs><path class="a" d="M92.772,86.178c.189,0,.381-.031.579-.048.165-1.9.25-3.727.5-5.523A48.488,48.488,0,0,1,94.9,75.33c.442-1.725,1.053-3.408,1.591-5.105a38.355,38.355,0,0,0-4.5,15.912C92.3,86.154,92.535,86.178,92.772,86.178Zm-7.728-4.646a12.878,12.878,0,0,1,1.365-5.074,10.82,10.82,0,0,0,5.784,2.52A6.683,6.683,0,0,0,88.6,76.4a4.7,4.7,0,0,0,2.551-1.711,4.647,4.647,0,0,0-2.095.027,10.506,10.506,0,0,0-1.786.658c.291-.871.6-1.8.943-2.815-1.546.346-2.122,1.57-1.882,3.648-1.855-.782-3.322-.593-4.286.689l2.839.285C83.861,78.961,83.906,80.737,85.044,81.532ZM96.087,68.287c-2.9-.415-3.422-.381-4.478.291a3.838,3.838,0,0,0-1.742,4.056,11.064,11.064,0,0,1,6.751-3.562.8.8,0,0,1,.665.267,10.864,10.864,0,0,1,1.7,4.714c.11,1.169.021,2.362.021,3.627a3.884,3.884,0,0,0,1.666-2.818,5.68,5.68,0,0,0-2.081-5.05,21.994,21.994,0,0,1,6.8,6.038c-.528-3.645-3.233-6.209-7.293-6.967a24.014,24.014,0,0,1,9.127,1.365,8.309,8.309,0,0,0-4.138-2.568,6.843,6.843,0,0,0-4.851.487c1.231-2.414.027-5.4-2.181-5.667,1.2,2.65,1.474,4.275,1.039,6.182-.058-.151-.11-.267-.147-.387a5.941,5.941,0,0,0-6.319-4.4,4.117,4.117,0,0,0-3.507,2.712C91.147,66.018,94.164,66.58,96.087,68.287ZM89.628,86.932c-3.634.4-10.289,3.518-11.328,5.568a21.278,21.278,0,0,0,2.873-.891,1.071,1.071,0,0,1,1.059,0,6.236,6.236,0,0,0,6.206,0,.973.973,0,0,1,1.056.017,6.293,6.293,0,0,0,6.267-.058.793.793,0,0,1,.881,0,6.3,6.3,0,0,0,6.322.024.9.9,0,0,1,1,.017,5.276,5.276,0,0,0,2.945.723A21.389,21.389,0,0,0,89.628,86.932Zm1.539-.761a20.619,20.619,0,0,0-4.094-8.935,22.541,22.541,0,0,1,2.846,9.082C90.369,86.263,90.725,86.222,91.167,86.171Z" transform="translate(-78.3 -62.5)"/></svg>