<?xml version="1.0" encoding="utf-8"?>
<!-- Generator: Adobe Illustrator 24.0.1, SVG Export Plug-In . SVG Version: 6.00 Build 0)  -->
<svg version="1.1" id="Layer_1" xmlns="http://www.w3.org/2000/svg" xmlns:xlink="http://www.w3.org/1999/xlink" x="0px" y="0px"
	 viewBox="0 0 159 54" style="enable-background:new 0 0 159 54;" xml:space="preserve">
<style type="text/css">
	.st0{fill:#FFFFFF;}
</style>
<g transform="translate(-186.158 -218.401)">
	<g transform="translate(186.158 218.401)">
		<path class="st0" d="M15.9,10.8c2.5-2.5,2.5-6.5,0-9C14.7,0.7,13.1,0,11.4,0H0v12.7h3.3V3.3h8c1.7,0,3,1.3,3.1,3s-1.3,3-3,3.1
			c0,0-0.1,0-0.1,0H7.2v2.7l7.7,10H19l-7.2-9.4C13.3,12.6,14.8,11.9,15.9,10.8z"/>
		<path class="st0" d="M155.4,10.8c2.5-2.5,2.5-6.5,0-9c-1.2-1.2-2.8-1.9-4.5-1.9h-11.4v12.7h3.3V3.3h8c1.7,0,3,1.3,3.1,3
			c0,1.7-1.3,3-3,3.1c0,0-0.1,0-0.1,0h-4.2v2.7l7.7,10h4.1l-7.2-9.4C152.9,12.6,154.3,11.9,155.4,10.8z"/>
		<path class="st0" d="M34,0c-6.1,0-11,4.9-11,11c0,0,0,0,0,0V12h3.3V11c0-4.2,3.4-7.7,7.7-7.7c4.2,0,7.7,3.4,7.7,7.7
			c0,4.2-3.4,7.7-7.7,7.7c0,0,0,0,0,0h-1v3.3h1c6.1,0,11-4.9,11-11C45,4.9,40.1,0,34,0C34,0,34,0,34,0L34,0z"/>
		<path class="st0" d="M67.6,6.3c0-3.5-2.8-6.3-6.3-6.3H57v3.3h4.2c1.7,0,3,1.3,3.1,3c0,1.7-1.3,3-3,3.1c0,0-0.1,0-0.1,0H57v3.3h4.2
			c1.7,0,3,1.3,3.1,3c0,1.7-1.3,3-3,3.1c0,0-0.1,0-0.1,0h-8V9.4h-3.3v12.7h11.4c3.5,0,6.3-2.8,6.3-6.3c0-1.7-0.7-3.3-1.9-4.5
			c-0.1-0.1-0.1-0.1-0.2-0.2c0.1-0.1,0.1-0.1,0.2-0.2C66.9,9.7,67.6,8,67.6,6.3z"/>
		<path class="st0" d="M82.5,0c-6.1,0-11,4.9-11,11c0,0,0,0,0,0V12h3.3V11c0-4.2,3.4-7.7,7.7-7.7c4.2,0,7.7,3.4,7.7,7.7
			c0,4.2-3.4,7.7-7.7,7.7c0,0,0,0,0,0h-1v3.3h1c6.1,0,11-4.9,11-11C93.6,4.9,88.6,0,82.5,0C82.5,0,82.5,0,82.5,0L82.5,0z"/>
		<rect x="103.3" y="9.4" class="st0" width="3.3" height="12.7"/>
		<rect x="96.1" y="0" class="st0" width="17.7" height="3.3"/>
		<rect x="120.9" y="0" class="st0" width="13.4" height="3.3"/>
		<rect x="123.8" y="9.4" class="st0" width="10.5" height="3.3"/>
		<path class="st0" d="M119.9,9.4h-3.3v12.7h17.7v-3.3h-14.4L119.9,9.4z"/>
	</g>
	<g transform="translate(284.721 257.507)">
		<path class="st0" d="M1.4,2.5h7.3L0,14.9h3L13.5,0H1.4L1.4,2.5z"/>
		<rect x="6" y="12.4" class="st0" width="6.8" height="2.5"/>
		<rect x="20.6" y="6.2" class="st0" width="7.3" height="2.5"/>
		<path class="st0" d="M18.3,6.2h-2.5v8.7h12v-2.5h-9.5V6.2z"/>
		<rect x="18.7" y="0" class="st0" width="9.2" height="2.5"/>
		<path class="st0" d="M41.5,7.4c1.7-1.7,1.7-4.5,0-6.2C40.7,0.5,39.6,0,38.5,0h-7.7v8.7h2.5V2.5h5.2c1,0,1.9,0.8,1.9,1.8
			s-0.8,1.9-1.8,1.9c0,0-0.1,0-0.1,0h-2.9v2l5.2,6.7h3.1L39,8.7C40,8.6,40.9,8.1,41.5,7.4z"/>
		<path class="st0" d="M58.3,2.2c-2.9-2.9-7.6-2.9-10.5,0c-1.4,1.4-2.2,3.3-2.2,5.3v0.8h2.5V7.4c0-2.7,2.2-4.9,4.9-4.9
			c2.7,0,4.9,2.2,4.9,4.9c0,2.7-2.2,4.9-4.9,4.9c0,0,0,0,0,0h-0.8v2.5H53c4.1,0,7.4-3.3,7.4-7.4C60.4,5.5,59.7,3.6,58.3,2.2
			L58.3,2.2z"/>
	</g>
</g>
</svg>
