<svg xmlns="http://www.w3.org/2000/svg" width="159" height="53.998" viewBox="0 0 159 53.998"><defs><style>.a{fill:#003a83;}</style></defs><g transform="translate(-186.158 -218.401)"><g transform="translate(186.158 218.401)"><path class="a" d="M202.033,229.237a6.349,6.349,0,0,0-4.487-10.836H186.158v12.7h3.34v-9.357h8.047a3.009,3.009,0,1,1,0,6.017h-4.189v2.713l7.681,9.985h4.126l-7.207-9.369A6.119,6.119,0,0,0,202.033,229.237Z" transform="translate(-186.158 -218.401)"/><path class="a" d="M613.921,229.237a6.349,6.349,0,0,0-4.487-10.836H598.047v12.7h3.34v-9.357h8.047a3.009,3.009,0,1,1,0,6.017h-4.189v2.713l7.681,9.985h4.125l-7.207-9.369A6.119,6.119,0,0,0,613.921,229.237Z" transform="translate(-458.537 -218.401)"/><path class="a" d="M264.944,218.4a11.027,11.027,0,0,0-11.028,11.028v.95h3.34v-.95a7.692,7.692,0,1,1,7.688,7.687h-.95v3.34h.95a11.028,11.028,0,1,0,0-22.056Z" transform="translate(-230.934 -218.401)"/><path class="a" d="M351.009,224.75a6.357,6.357,0,0,0-6.349-6.349h-4.189v3.34h4.189a3.009,3.009,0,1,1,0,6.017h-4.189v3.34h4.189a3.009,3.009,0,1,1,0,6.017h-8.047v-9.358h-3.34v12.7H344.66a6.346,6.346,0,0,0,4.487-10.836c-.066-.066-.132-.13-.2-.192q.1-.093.2-.192A6.143,6.143,0,0,0,351.009,224.75Z" transform="translate(-283.443 -218.401)"/><path class="a" d="M408.344,218.4a11.027,11.027,0,0,0-11.028,11.028v.95h3.34v-.95a7.692,7.692,0,1,1,7.687,7.687h-.95v3.34h.95a11.028,11.028,0,1,0,0-22.056Z" transform="translate(-325.797 -218.401)"/><rect class="a" width="3.34" height="12.698" transform="translate(103.257 9.358)"/><rect class="a" width="17.736" height="3.34" transform="translate(96.056 0)"/><rect class="a" width="13.418" height="3.34" transform="translate(120.926 0)"/><rect class="a" width="10.538" height="3.34" transform="translate(123.805 9.358)"/><path class="a" d="M533.767,245.989h-3.34v12.7h17.736v-3.34h-14.4Z" transform="translate(-413.819 -236.632)"/></g><g transform="translate(284.721 257.507)"><path class="a" d="M478.69,336.207h7.3l-8.666,12.38h3.046L490.795,333.7h-12.1Z" transform="translate(-477.326 -333.696)"/><rect class="a" width="6.797" height="2.511" transform="translate(5.955 12.38)"/><rect class="a" width="7.273" height="2.511" transform="translate(20.595 6.19)"/><path class="a" d="M526.518,351.946h-2.511v8.7h12.034v-2.511h-9.523Z" transform="translate(-508.173 -345.756)"/><rect class="a" width="9.177" height="2.511" transform="translate(18.69 0)"/><path class="a" d="M578.82,341.122a4.351,4.351,0,0,0-3.075-7.425h-7.684v8.7h2.511v-6.19h5.173a1.84,1.84,0,1,1,0,3.679h-2.922v2l5.157,6.7h3.109l-4.786-6.223A4.189,4.189,0,0,0,578.82,341.122Z" transform="translate(-537.286 -333.696)"/><path class="a" d="M624.317,335.877a7.446,7.446,0,0,0-12.711,5.265v.779h2.511v-.779a4.938,4.938,0,1,1,4.935,4.934h-.78v2.511h.779a7.446,7.446,0,0,0,5.265-12.711Z" transform="translate(-566.06 -333.696)"/></g></g></svg>