<svg xmlns="http://www.w3.org/2000/svg" width="34.935" height="30" viewBox="0 0 34.935 30"><defs><style>.a{fill:#fff;}</style></defs><path class="a" d="M23.126,70.782q5.2.157,10.394.311c1.069.031,1.516.542,1.4,1.635-.15,1.5-.3,3.008-.472,4.507-.321,2.756-.713,5.5-1.237,8.224a51.053,51.053,0,0,1-2.568,9.44,16.354,16.354,0,0,1-1.757,3.347,4.826,4.826,0,0,1-4.4,2.236c-4.077-.122-8.158-.112-12.238-.171-1.694-.021-3.389-.07-5.083-.119A6.361,6.361,0,0,1,2.23,97.568,11.591,11.591,0,0,1,.05,92.984a1.171,1.171,0,0,1,1.216-1.534c2.956.063,5.915.143,8.87.21q4.617.1,9.227.2c.119,0,.234.021.349.014a1.426,1.426,0,0,1,1.481.975,19.534,19.534,0,0,0,1.785,3.116,7.474,7.474,0,0,0,1.46,1.618,1.334,1.334,0,0,0,2.044-.087A8.094,8.094,0,0,0,28.167,94.7a44.722,44.722,0,0,0,2.32-7.972c.59-2.749,1.031-5.527,1.4-8.315.2-1.537.332-3.081.514-4.619.035-.29-.049-.356-.321-.36q-3.4-.084-6.8-.185-5.649-.162-11.295-.342c-.307-.01-.391.077-.419.381a70.46,70.46,0,0,1-2.5,13.73c-.252.835-.576,1.645-.866,2.47a.283.283,0,0,1-.307.227c-.7-.021-1.408-.028-2.11-.028-.273,0-.259-.1-.168-.3A41.122,41.122,0,0,0,10.4,79.129c.423-2.48.7-4.978.915-7.483a1.162,1.162,0,0,1,1.3-1.16l8.207.231c.769.021,1.541,0,2.306,0a.38.38,0,0,1,0,.063ZM21.494,98.015a21.922,21.922,0,0,1-2.2-3.577.333.333,0,0,0-.346-.192c-.353,0-.7,0-1.055-.01q-4.439-.11-8.874-.217c-1.838-.045-3.675-.077-5.509-.122-.685-.017-.7-.024-.388.583.989,1.963,2.33,3.364,4.762,3.368,4.119,0,8.234.108,12.353.168C20.628,98.022,21.012,98.015,21.494,98.015Zm.831-19.11q-2.542-.084-5.08-.171a4.162,4.162,0,0,1-.468-.038.676.676,0,0,1-.611-.727.684.684,0,0,1,.639-.671,2.994,2.994,0,0,1,.468,0q5.172.183,10.352.374c.507.017.79.3.772.737a.685.685,0,0,1-.8.667c-1.757-.049-3.515-.108-5.275-.164Zm2.536,5.02q-4.329-.152-8.664-.307c-.482-.014-.779-.224-.835-.6a.682.682,0,0,1,.423-.758.961.961,0,0,1,.5-.056l4.374.15q2.694.094,5.384.182a.892.892,0,0,1,.65.217.687.687,0,0,1,.164.758.7.7,0,0,1-.7.465C25.721,83.978,24.862,83.939,24.862,83.925Zm-4.853,4.86q-2.7-.152-5.4-.307c-.3-.017-.486-.224-.521-.6a.817.817,0,0,1,.262-.762.408.408,0,0,1,.311-.052l2.725.15c1.121.059,2.239.122,3.361.182a.439.439,0,0,1,.405.217,1,1,0,0,1,.1.758c-.07.314-.234.458-.437.465A5.446,5.446,0,0,1,20.009,88.785Z" transform="translate(-0.005 -70.485)"/></svg>