<svg xmlns="http://www.w3.org/2000/svg" width="30" height="30" viewBox="0 0 30 30"><defs><style>.a{fill:#56af48;}.b{fill:#fff;}</style></defs><rect class="a" width="30" height="30"/><path class="b" d="M204.772,264.127l-4.665-4.665a.276.276,0,0,1,0-.392l1.579-1.579a.276.276,0,0,1,.392,0l2.609,2.609a.269.269,0,0,0,.388,0q3.684-3.906,7.352-7.8a.279.279,0,0,1,.392-.012l1.652,1.557a.279.279,0,0,1,.012.392q-4.673,4.956-9.326,9.89A.266.266,0,0,1,204.772,264.127Z" transform="translate(-192.025 -243.207)"/></svg>