<svg xmlns="http://www.w3.org/2000/svg" width="21.363" height="30" viewBox="0 0 21.363 30"><defs><style>.a{fill:#fff;}</style></defs><path class="a" d="M197.894,74.634a15.128,15.128,0,0,1-2.043-4.371.794.794,0,0,1,.069-.621.54.54,0,0,1,.446-.291H201.8a.529.529,0,0,1,.449.291.809.809,0,0,1,.069.621,15.271,15.271,0,0,1-2.047,4.371,3.9,3.9,0,0,0-.641,2.181.562.562,0,1,1-1.1,0A3.913,3.913,0,0,0,197.894,74.634Zm1.738,4.913a.561.561,0,1,0-1.1,0,3.776,3.776,0,0,1-1.33,2.746,17.12,17.12,0,0,0-4.073,5.438.831.831,0,0,0,0,.682.543.543,0,0,0,.473.339h10.954a.547.547,0,0,0,.473-.339.817.817,0,0,0,.007-.682,17.021,17.021,0,0,0-4.077-5.438A3.744,3.744,0,0,1,199.632,79.547Zm10.131,11.589a1.252,1.252,0,0,1-1.1,1.365H189.494a1.4,1.4,0,0,1,0-2.726h.326c.381-5.307,2.877-9.381,4.817-12.274-1.944-2.894-4.433-6.967-4.81-12.274H189.5a1.4,1.4,0,0,1,0-2.726H208.67a1.4,1.4,0,0,1,0,2.726h-.326c-.377,5.307-2.873,9.381-4.814,12.274,1.941,2.894,4.437,6.967,4.81,12.274h.326A1.251,1.251,0,0,1,209.763,91.135Zm-3.621-1.361c-.411-4.793-2.914-8.486-4.786-11.242l-.1-.151a1.619,1.619,0,0,1,0-1.759l.1-.147c1.872-2.757,4.378-6.449,4.79-11.242H192.024c.415,4.793,2.914,8.486,4.786,11.242l.1.147a1.619,1.619,0,0,1,0,1.759l-.1.151c-1.869,2.753-4.375,6.446-4.786,11.242Z" transform="translate(-188.4 -62.5)"/></svg>