<?xml version="1.0" encoding="UTF-8"?>
<svg width="322px" height="312px" viewBox="0 0 322 312" version="1.1" xmlns="http://www.w3.org/2000/svg" xmlns:xlink="http://www.w3.org/1999/xlink">
    <!-- Generator: Sketch 50.2 (55047) - http://www.bohemiancoding.com/sketch -->
    <title>Artboard</title>
    <desc>Created with Sketch.</desc>
    <defs>
        <linearGradient x1="50%" y1="0%" x2="0.672868497%" y2="98.654263%" id="linearGradient-1">
            <stop stop-color="#5744B2" offset="0%"></stop>
            <stop stop-color="#72A4E2" offset="100%"></stop>
        </linearGradient>
        <linearGradient x1="50%" y1="3.82947977%" x2="50%" y2="97.5388367%" id="linearGradient-2">
            <stop stop-color="#E93B91" offset="0%"></stop>
            <stop stop-color="#E75D6E" offset="100%"></stop>
        </linearGradient>
        <linearGradient x1="78.2998764%" y1="3.19048049%" x2="2.48002874%" y2="96.9337066%" id="linearGradient-3">
            <stop stop-color="#6147BC" offset="0%"></stop>
            <stop stop-color="#EF82FF" offset="100%"></stop>
        </linearGradient>
        <linearGradient x1="77.0045697%" y1="7.71248554%" x2="2.45403696%" y2="97.0589152%" id="linearGradient-4">
            <stop stop-color="#EC7C74" offset="0%"></stop>
            <stop stop-color="#E9C425" offset="100%"></stop>
        </linearGradient>
        <linearGradient x1="50%" y1="1.84700145%" x2="50%" y2="97.9994581%" id="linearGradient-5">
            <stop stop-color="#1E7FE0" offset="0%"></stop>
            <stop stop-color="#0EAD90" offset="100%"></stop>
        </linearGradient>
        <linearGradient x1="50%" y1="2.23988439%" x2="50%" y2="97.1053107%" id="linearGradient-6">
            <stop stop-color="#EC3549" offset="0%"></stop>
            <stop stop-color="#FCA01D" offset="100%"></stop>
        </linearGradient>
    </defs>
    <g id="Artboard" stroke="none" stroke-width="1" fill="none" fill-rule="evenodd">
        <g id="Group" transform="translate(88.000000, 73.500000)">
            <path d="M29.303219,0.00133786888 C49.2484439,0.0209661343 61.1011181,0.256573414 64.8612416,0.708159708 C64.8612416,0.708159708 20.6376678,16.995833 0,92.060762 C0,92.060762 0,76.009142 0,43.9059019 L14.8676703,19.3044501 C6.12035179,31.1282882 1.16446171,38.1590107 0,40.3966178 C0,40.3966178 0,26.9310786 0,0 L29.3042273,0 Z" id="Combined-Shape" fill="url(#linearGradient-1)"></path>
            <path d="M61.1759438,44.6140616 C101.468533,46.030381 129.476797,59.9575219 145.200734,86.3954843 C145.200734,86.3954843 143.726615,36.1161451 107.610696,14.1631942 C107.235127,14.1631942 97.6125858,19.8511646 78.8653734,31.1590271 C75.0116577,33.4834947 69.1151812,37.9685062 61.1759438,44.6140616 Z" id="Path-5" fill="url(#linearGradient-2)"></path>
            <path d="M0,142.340101 L0,92.060762 C11.792953,45.7943278 35.3788591,15.5795136 70.7577182,1.41631942 C70.7577182,1.41631942 79.8269737,2.39443186 89.9212668,5.66527766 C97.1962182,8.0225744 105.191214,12.0202379 109.821875,15.5795136 C109.821875,15.5795136 74.443016,32.5753466 61.1759438,44.6140616 C61.1759438,44.6140616 57.4824655,44.6140616 50.0955089,44.6140616 L50.0955089,54.5552645 C37.6120425,68.0430586 28.7755082,79.3646249 23.5859061,88.5199635 C18.3963039,97.675302 10.5343352,115.615348 0,142.340101 Z" id="Path-3" fill="url(#linearGradient-3)"></path>
            <path d="M4.42235738,158.627775 C1.96549217,123.219789 17.1980565,88.5199635 50.1200504,54.5282975 C50.1200504,54.5282975 50.3657369,77.6627189 50.8571099,123.931562 C76.4085081,122.040727 90.6583264,110.472914 93.6065646,89.2281232 C93.6065646,76.4812484 77.4743032,56.6527766 63.3871225,56.6527766 C63.3871225,56.6527766 113.507173,49.5711795 132.670722,93.4770814 C134.8819,109.056595 129.722483,158.627775 56.7535864,158.627775 C24.8143387,158.627775 7.37059564,158.627775 4.42235738,158.627775 Z" id="Path-4" fill="url(#linearGradient-4)"></path>
            <path d="M131.935408,90.9987611 C133.468468,122.268472 125.907107,143.237566 109.251324,153.906043 C109.251324,153.906043 118.793244,165.142217 142.735932,164.142048 C142.735932,164.142048 142.938264,149.11875 138.571986,120.13458 C137.633929,113.907579 135.421736,104.195639 131.935408,90.9987611 Z" id="Path-6" fill="url(#linearGradient-5)"></path>
            <path d="M64.1241821,56.6527766 C79.3567464,59.9575219 89.4298938,71.052024 94.3436242,89.9362829 C99.2573546,108.820542 85.744596,131.717706 53.8053482,158.627775 C88.2014612,159.099881 111.787367,149.657752 124.563066,130.301386 C129.722483,121.80347 134.144841,110.472914 132.670722,94.1852411 C131.933662,85.6873246 118.412207,65.0895911 89.1842073,58.069096 C81.3222386,56.1806701 72.9688968,55.7085637 64.1241821,56.6527766 Z" id="Path-7" fill="url(#linearGradient-6)"></path>
        </g>
    </g>
</svg>