<svg xmlns="http://www.w3.org/2000/svg" width="50" height="50" viewBox="0 0 50 50"><defs><style>.a{fill:#fff;}</style></defs><path class="a" d="M29.689,18.748v3.125a1.175,1.175,0,0,1-1.172,1.172H23.048v5.468a1.175,1.175,0,0,1-1.172,1.172H18.751a1.175,1.175,0,0,1-1.172-1.172V23.045H12.11a1.175,1.175,0,0,1-1.172-1.172V18.748a1.175,1.175,0,0,1,1.172-1.172h5.469V12.108a1.175,1.175,0,0,1,1.172-1.172h3.125a1.175,1.175,0,0,1,1.172,1.172v5.468h5.469A1.175,1.175,0,0,1,29.689,18.748Zm19.63,27.8-2.764,2.763a2.334,2.334,0,0,1-3.311,0L33.5,39.576a2.342,2.342,0,0,1-.684-1.66V36.325a20.3,20.3,0,1,1,3.516-3.515h1.592a2.342,2.342,0,0,1,1.66.684l9.737,9.735A2.363,2.363,0,0,1,49.319,46.548ZM33.6,20.311A13.282,13.282,0,1,0,20.313,33.59,13.27,13.27,0,0,0,33.6,20.311Z"/></svg>