<svg xmlns="http://www.w3.org/2000/svg" width="18" height="18" viewBox="0 0 18 18"><defs><style>.a{fill:#fff;}</style></defs><path class="a" d="M16.071,32H1.929A1.929,1.929,0,0,0,0,33.929V48.071A1.929,1.929,0,0,0,1.929,50H16.071A1.929,1.929,0,0,0,18,48.071V33.929A1.929,1.929,0,0,0,16.071,32ZM3.777,47.429a.6.6,0,0,1-.587-.467l-.6-2.612a.6.6,0,0,1,.35-.689l2.812-1.205a.6.6,0,0,1,.7.172L7.7,44.15A9.315,9.315,0,0,0,12.149,39.7l-1.522-1.245a.6.6,0,0,1-.172-.7l1.205-2.812a.6.6,0,0,1,.689-.35l2.612.6a.6.6,0,0,1,.467.587A11.651,11.651,0,0,1,3.777,47.429Z" transform="translate(0 -32)"/></svg>