<?xml version="1.0" encoding="UTF-8" standalone="no"?><!DOCTYPE svg PUBLIC "-//W3C//DTD SVG 1.1//EN" "http://www.w3.org/Graphics/SVG/1.1/DTD/svg11.dtd"><svg width="100%" height="100%" viewBox="0 0 192 192" version="1.1" xmlns="http://www.w3.org/2000/svg" xmlns:xlink="http://www.w3.org/1999/xlink" xml:space="preserve" xmlns:serif="http://www.serif.com/" style="fill-rule:evenodd;clip-rule:evenodd;stroke-linejoin:round;stroke-miterlimit:1.41421;"><path id="Pozadí" d="M192,48c0,-26.492 -21.508,-48 -48,-48l-96,0c-26.492,0 -48,21.508 -48,48l0,96c0,26.492 21.508,48 48,48l96,0c26.492,0 48,-21.508 48,-48l0,-96Z" style="fill:#fff;"/><g id="Logo-Placeholder" serif:id="Logo Placeholder"><path d="M48.897,108.177l0,-24.304l6.567,0l0,19.001l9.359,0l0,5.303l-15.926,0Z" style="fill-rule:nonzero;"/><path d="M90.772,95.992c0,4.089 -1.003,7.198 -3.009,9.325c-2.006,2.128 -4.943,3.192 -8.81,3.192c-3.813,0 -6.736,-1.069 -8.769,-3.208c-2.034,-2.139 -3.051,-5.253 -3.051,-9.343c0,-4.045 1.012,-7.134 3.034,-9.267c2.023,-2.133 4.962,-3.2 8.819,-3.2c3.868,0 6.799,1.058 8.794,3.175c1.995,2.117 2.992,5.225 2.992,9.326Zm-16.723,0c0,4.699 1.634,7.048 4.904,7.048c1.662,0 2.895,-0.571 3.698,-1.712c0.804,-1.142 1.206,-2.92 1.206,-5.336c0,-2.427 -0.408,-4.22 -1.222,-5.378c-0.815,-1.158 -2.031,-1.737 -3.649,-1.737c-3.292,0 -4.937,2.371 -4.937,7.115Z" style="fill-rule:nonzero;"/><path d="M104.918,93.947l10.49,0l0,13.099c-2.848,0.976 -5.979,1.463 -9.392,1.463c-3.746,0 -6.641,-1.086 -8.686,-3.258c-2.045,-2.172 -3.067,-5.27 -3.067,-9.293c0,-3.923 1.119,-6.976 3.358,-9.159c2.238,-2.183 5.375,-3.275 9.409,-3.275c1.529,0 2.972,0.144 4.33,0.432c1.358,0.288 2.541,0.654 3.549,1.097l-2.078,5.154c-1.751,-0.865 -3.674,-1.297 -5.768,-1.297c-1.917,0 -3.4,0.623 -4.447,1.87c-1.047,1.247 -1.571,3.028 -1.571,5.345c0,2.272 0.474,4.003 1.422,5.195c0.947,1.191 2.313,1.787 4.097,1.787c0.975,0 1.873,-0.095 2.693,-0.283l0,-3.807l-4.339,0l0,-5.07Z" style="fill-rule:nonzero;"/><path d="M143.103,95.992c0,4.089 -1.003,7.198 -3.009,9.325c-2.006,2.128 -4.943,3.192 -8.811,3.192c-3.812,0 -6.735,-1.069 -8.769,-3.208c-2.033,-2.139 -3.05,-5.253 -3.05,-9.343c0,-4.045 1.011,-7.134 3.034,-9.267c2.022,-2.133 4.962,-3.2 8.819,-3.2c3.867,0 6.799,1.058 8.793,3.175c1.995,2.117 2.993,5.225 2.993,9.326Zm-16.724,0c0,4.699 1.635,7.048 4.904,7.048c1.663,0 2.896,-0.571 3.699,-1.712c0.803,-1.142 1.205,-2.92 1.205,-5.336c0,-2.427 -0.407,-4.22 -1.222,-5.378c-0.814,-1.158 -2.03,-1.737 -3.648,-1.737c-3.292,0 -4.938,2.371 -4.938,7.115Z" style="fill-rule:nonzero;"/></g></svg>